<svg width="140" height="46" viewBox="0 0 140 46" fill="none" xmlns="http://www.w3.org/2000/svg">
<mask id="mask0_270_382" style="mask-type:luminance" maskUnits="userSpaceOnUse" x="0" y="0" width="140" height="46">
<rect width="140" height="46" fill="white"/>
</mask>
<g mask="url(#mask0_270_382)">
<path fill-rule="evenodd" clip-rule="evenodd" d="M89.9873 43.4627H83.0277C82.4349 43.4627 81.8767 43.1811 81.5245 42.7036L71.6027 29.2726H71.6405V41.5922C71.6405 42.6254 70.8032 43.4627 69.7706 43.4627H64.1327C63.0995 43.4627 62.2629 42.6254 62.2629 41.5922V8.75853C62.2629 7.72533 63.0995 6.88806 64.1327 6.88806H69.7706C70.8032 6.88806 71.6405 7.72533 71.6405 8.75853V20.9585H71.6675L81.4275 7.65225C81.7803 7.17219 82.3397 6.88806 82.9357 6.88806H89.0807C90.6274 6.88806 91.505 8.65962 90.5682 9.89064L80.0982 23.648C79.5835 24.3246 79.5898 25.2626 80.1133 25.9323L91.4603 40.4406C92.4197 41.6678 91.5453 43.4627 89.9873 43.4627Z" fill="#1E528F"/>
<path fill-rule="evenodd" clip-rule="evenodd" d="M94.2574 12.3218V8.92927C94.2574 7.80409 95.1703 6.89185 96.2955 6.89185H105.59C106.715 6.89185 107.627 7.80409 107.627 8.92927V41.4253C107.627 42.5505 106.715 43.4627 105.59 43.4627H101.186C100.06 43.4627 99.1481 42.5505 99.1481 41.4253V16.3967C99.1481 15.2715 98.2359 14.3592 97.1107 14.3592H96.2955C95.1703 14.3592 94.2574 13.447 94.2574 12.3218Z" fill="#30B8CD"/>
<path fill-rule="evenodd" clip-rule="evenodd" d="M139.139 37.7114V42.3281C139.139 42.9574 138.629 43.4671 138 43.4671H116.055C115.426 43.4671 114.916 42.9574 114.916 42.3281V33.9705C114.916 33.6057 115.091 33.2636 115.386 33.0494L120.375 29.4238C125.168 25.6784 131.61 22.2859 131.697 19.1472C131.781 16.122 130.239 14.0354 127.237 14.0354C123.959 14.0354 122.858 15.8391 122.501 18.1865C122.417 18.7402 121.938 19.1485 121.377 19.1485H114.915C114.752 19.1485 115.608 15.0201 115.746 14.6018C116.264 13.0274 117.061 11.5652 118.114 10.2838C120.414 7.48466 123.658 6.56549 127.204 6.56549C130.399 6.56549 133.626 7.55333 135.886 9.89378C138.683 12.7905 139.726 17.387 138.933 21.2741C138.114 25.2847 134.788 28.039 131.652 30.3442C130.648 31.0832 127.867 32.9827 125.644 34.4921C124.715 35.1221 125.162 36.5724 126.284 36.5724H138C138.629 36.5724 139.139 37.0827 139.139 37.7114Z" fill="#30B8CD"/>
<path fill-rule="evenodd" clip-rule="evenodd" d="M20.7774 42.7873L46.1015 36.3588C46.9501 36.1232 47.5366 35.3502 47.5366 34.4701V1.96146C47.5366 0.664918 46.3006 -0.274412 45.0513 0.0727177L19.7266 6.50187C18.8786 6.73749 18.2914 7.50987 18.2914 8.38998V40.8992C18.2914 42.1951 19.5281 43.1351 20.7774 42.7873Z" fill="#1E528F"/>
<path fill-rule="evenodd" clip-rule="evenodd" d="M20.2564 43.474H49.288C50.371 43.474 51.2486 42.5965 51.2486 41.5135V8.85617C51.2486 7.77383 50.371 6.89624 49.288 6.89624H20.2564C19.174 6.89624 18.2964 7.77383 18.2964 8.85617V41.5135C18.2964 42.5965 19.174 43.474 20.2564 43.474Z" fill="#30B8CD"/>
<path fill-rule="evenodd" clip-rule="evenodd" d="M9.14255 11.4631H13.7151V6.89185H9.14255V11.4631Z" fill="#ECC827"/>
<path fill-rule="evenodd" clip-rule="evenodd" d="M27.4321 16.0357H32.0046V11.4644H27.4321V16.0357Z" fill="#FFFFFE"/>
<path fill-rule="evenodd" clip-rule="evenodd" d="M0 20.6082H4.57191V16.0369H0V20.6082Z" fill="#ECC827"/>
<path fill-rule="evenodd" clip-rule="evenodd" d="M9.14255 20.6082H13.7151V16.0369H9.14255V20.6082Z" fill="#24A1A6"/>
<path fill-rule="evenodd" clip-rule="evenodd" d="M18.2876 20.6082H22.8602V16.0369H18.2876V20.6082Z" fill="#1E528F"/>
<path fill-rule="evenodd" clip-rule="evenodd" d="M13.7151 25.1801H18.287V20.6088H13.7151V25.1801Z" fill="#ECC827"/>
<path fill-rule="evenodd" clip-rule="evenodd" d="M27.4321 25.1801H32.0046V20.6088H27.4321V25.1801Z" fill="#1E528F"/>
<path fill-rule="evenodd" clip-rule="evenodd" d="M9.14255 29.7526H13.7151V25.1814H9.14255V29.7526Z" fill="#24A1A6"/>
<path fill-rule="evenodd" clip-rule="evenodd" d="M18.2876 29.7526H22.8602V25.1814H18.2876V29.7526Z" fill="#1E528F"/>
<path fill-rule="evenodd" clip-rule="evenodd" d="M22.8596 29.7526H27.4315V25.1814H22.8596V29.7526Z" fill="#FFFFFE"/>
<path fill-rule="evenodd" clip-rule="evenodd" d="M41.1491 29.7526H45.7216V25.1814H41.1491V29.7526Z" fill="#FFFFFE"/>
<path fill-rule="evenodd" clip-rule="evenodd" d="M4.57065 34.3245H9.14256V29.7533H4.57065V34.3245Z" fill="#ECC827"/>
<path fill-rule="evenodd" clip-rule="evenodd" d="M22.8596 34.3245H27.4315V29.7533H22.8596V34.3245Z" fill="#30B8CD"/>
<path fill-rule="evenodd" clip-rule="evenodd" d="M22.8596 34.3245H27.4315V29.7533H22.8596V34.3245Z" fill="#1E528F"/>
<path fill-rule="evenodd" clip-rule="evenodd" d="M32.004 34.3245H36.5759V29.7533H32.004V34.3245Z" fill="#FFFFFE"/>
<path fill-rule="evenodd" clip-rule="evenodd" d="M13.7151 38.8971H18.287V34.3258H13.7151V38.8971Z" fill="#24A1A6"/>
<path fill-rule="evenodd" clip-rule="evenodd" d="M18.2876 38.8971H22.8602V34.3258H18.2876V38.8971Z" fill="#FFFFFE"/>
</g>
</svg>
